<?xml version="1.0" encoding="UTF-8" standalone="no"?>
<!DOCTYPE svg PUBLIC "-//W3C//DTD SVG 1.1//EN"
 "http://www.w3.org/Graphics/SVG/1.1/DTD/svg11.dtd">
<!-- Generated by graphviz version 9.0.0 (20230911.1827)
 -->
<!-- Pages: 1 -->
<svg width="443pt" height="483pt"
 viewBox="0.00 0.00 443.00 482.75" xmlns="http://www.w3.org/2000/svg" xmlns:xlink="http://www.w3.org/1999/xlink">
<g id="graph0" class="graph" transform="scale(1 1) rotate(0) translate(4 478.75)">
<polygon fill="white" stroke="none" points="-4,4 -4,-478.75 439,-478.75 439,4 -4,4"/>
<!-- I -->
<g id="node1" class="node">
<title>I</title>
<ellipse fill="none" stroke="black" cx="27" cy="-456.75" rx="27" ry="18"/>
<text text-anchor="middle" x="27" y="-451.32" font-family="Times New Roman,serif" font-size="14.00">I</text>
</g>
<!-- K -->
<g id="node2" class="node">
<title>K</title>
<ellipse fill="none" stroke="black" cx="73" cy="-369" rx="27" ry="18"/>
<text text-anchor="middle" x="73" y="-363.57" font-family="Times New Roman,serif" font-size="14.00">K</text>
</g>
<!-- I&#45;&#45;K -->
<g id="edge1" class="edge">
<title>I&#45;&#45;K</title>
<path fill="none" stroke="black" d="M35.65,-439.62C43.82,-424.39 56.02,-401.65 64.23,-386.35"/>
<text text-anchor="middle" x="61.75" y="-407.45" font-family="Times New Roman,serif" font-size="14.00">11</text>
</g>
<!-- G -->
<g id="node3" class="node">
<title>G</title>
<ellipse fill="none" stroke="black" cx="95" cy="-281.25" rx="27" ry="18"/>
<text text-anchor="middle" x="95" y="-275.82" font-family="Times New Roman,serif" font-size="14.00">G</text>
</g>
<!-- I&#45;&#45;G -->
<g id="edge2" class="edge">
<title>I&#45;&#45;G</title>
<path fill="none" stroke="black" d="M23.95,-438.65C20.91,-417.26 18.26,-379.91 30.25,-351 39.93,-327.68 61.39,-307.54 76.96,-295.19"/>
<text text-anchor="middle" x="34.38" y="-363.57" font-family="Times New Roman,serif" font-size="14.00">5</text>
</g>
<!-- K&#45;&#45;G -->
<g id="edge10" class="edge">
<title>K&#45;&#45;G</title>
<path fill="none" stroke="black" d="M77.35,-351.06C81.18,-336.12 86.74,-314.46 90.59,-299.45"/>
<text text-anchor="middle" x="92.75" y="-319.7" font-family="Times New Roman,serif" font-size="14.00">10</text>
</g>
<!-- J -->
<g id="node6" class="node">
<title>J</title>
<ellipse fill="none" stroke="black" cx="167" cy="-193.5" rx="27" ry="18"/>
<text text-anchor="middle" x="167" y="-188.07" font-family="Times New Roman,serif" font-size="14.00">J</text>
</g>
<!-- K&#45;&#45;J -->
<g id="edge11" class="edge">
<title>K&#45;&#45;J</title>
<path fill="none" stroke="black" d="M61.97,-352.44C48.3,-331.07 28.74,-292 45.5,-263.25 66.19,-227.76 112.75,-209.13 141.85,-200.59"/>
<text text-anchor="middle" x="52.75" y="-275.82" font-family="Times New Roman,serif" font-size="14.00">16</text>
</g>
<!-- L -->
<g id="node11" class="node">
<title>L</title>
<ellipse fill="none" stroke="black" cx="167" cy="-281.25" rx="27" ry="18"/>
<text text-anchor="middle" x="167" y="-275.82" font-family="Times New Roman,serif" font-size="14.00">L</text>
</g>
<!-- K&#45;&#45;L -->
<g id="edge12" class="edge">
<title>K&#45;&#45;L</title>
<path fill="none" stroke="black" d="M88.52,-353.84C105.94,-337.95 134.03,-312.33 151.45,-296.43"/>
<text text-anchor="middle" x="134.75" y="-319.7" font-family="Times New Roman,serif" font-size="14.00">12</text>
</g>
<!-- G&#45;&#45;J -->
<g id="edge17" class="edge">
<title>G&#45;&#45;J</title>
<path fill="none" stroke="black" d="M107.87,-264.92C120.98,-249.31 141.17,-225.26 154.24,-209.7"/>
<text text-anchor="middle" x="143.75" y="-231.95" font-family="Times New Roman,serif" font-size="14.00">19</text>
</g>
<!-- H -->
<g id="node4" class="node">
<title>H</title>
<ellipse fill="none" stroke="black" cx="230" cy="-369" rx="27" ry="18"/>
<text text-anchor="middle" x="230" y="-363.57" font-family="Times New Roman,serif" font-size="14.00">H</text>
</g>
<!-- H&#45;&#45;G -->
<g id="edge4" class="edge">
<title>H&#45;&#45;G</title>
<path fill="none" stroke="black" d="M210.94,-355.9C185.21,-339.55 139.64,-310.6 113.96,-294.29"/>
<text text-anchor="middle" x="180.75" y="-319.7" font-family="Times New Roman,serif" font-size="14.00">15</text>
</g>
<!-- C -->
<g id="node5" class="node">
<title>C</title>
<ellipse fill="none" stroke="black" cx="350" cy="-193.5" rx="27" ry="18"/>
<text text-anchor="middle" x="350" y="-188.07" font-family="Times New Roman,serif" font-size="14.00">C</text>
</g>
<!-- H&#45;&#45;C -->
<g id="edge3" class="edge">
<title>H&#45;&#45;C</title>
<path fill="none" stroke="black" d="M253.9,-360.51C280.38,-350.86 322.09,-331.4 343,-299.25 360.29,-272.66 357.31,-233.83 353.63,-211.67"/>
<text text-anchor="middle" x="361.75" y="-275.82" font-family="Times New Roman,serif" font-size="14.00">20</text>
</g>
<!-- H&#45;&#45;J -->
<g id="edge5" class="edge">
<title>H&#45;&#45;J</title>
<path fill="none" stroke="black" d="M226.86,-350.94C222.71,-329.89 214.53,-293.22 203,-263.25 195.79,-244.51 184.78,-224.3 176.83,-210.67"/>
<text text-anchor="middle" x="220.75" y="-275.82" font-family="Times New Roman,serif" font-size="14.00">17</text>
</g>
<!-- E -->
<g id="node8" class="node">
<title>E</title>
<ellipse fill="none" stroke="black" cx="235" cy="-105.75" rx="27" ry="18"/>
<text text-anchor="middle" x="235" y="-100.33" font-family="Times New Roman,serif" font-size="14.00">E</text>
</g>
<!-- C&#45;&#45;E -->
<g id="edge15" class="edge">
<title>C&#45;&#45;E</title>
<path fill="none" stroke="black" d="M336.8,-177.64C326.79,-166.89 312.37,-152.45 298,-141.75 285.06,-132.11 269.16,-123.3 256.57,-116.93"/>
<text text-anchor="middle" x="319.38" y="-144.2" font-family="Times New Roman,serif" font-size="14.00">8</text>
</g>
<!-- B -->
<g id="node9" class="node">
<title>B</title>
<ellipse fill="none" stroke="black" cx="408" cy="-18" rx="27" ry="18"/>
<text text-anchor="middle" x="408" y="-12.57" font-family="Times New Roman,serif" font-size="14.00">B</text>
</g>
<!-- C&#45;&#45;B -->
<g id="edge16" class="edge">
<title>C&#45;&#45;B</title>
<path fill="none" stroke="black" d="M358.33,-176.15C365.09,-162.43 374.53,-142.16 381,-123.75 391.58,-93.63 400.02,-57.32 404.49,-36.32"/>
<text text-anchor="middle" x="394.38" y="-100.33" font-family="Times New Roman,serif" font-size="14.00">7</text>
</g>
<!-- A -->
<g id="node12" class="node">
<title>A</title>
<ellipse fill="none" stroke="black" cx="345" cy="-105.75" rx="27" ry="18"/>
<text text-anchor="middle" x="345" y="-100.33" font-family="Times New Roman,serif" font-size="14.00">A</text>
</g>
<!-- C&#45;&#45;A -->
<g id="edge14" class="edge">
<title>C&#45;&#45;A</title>
<path fill="none" stroke="black" d="M348.99,-175.15C348.12,-160.27 346.88,-138.95 346.01,-124.08"/>
<text text-anchor="middle" x="350.38" y="-144.2" font-family="Times New Roman,serif" font-size="14.00">6</text>
</g>
<!-- J&#45;&#45;E -->
<g id="edge18" class="edge">
<title>J&#45;&#45;E</title>
<path fill="none" stroke="black" d="M179.16,-177.17C191.46,-161.66 210.37,-137.8 222.72,-122.24"/>
<text text-anchor="middle" x="213.75" y="-144.2" font-family="Times New Roman,serif" font-size="14.00">18</text>
</g>
<!-- D -->
<g id="node7" class="node">
<title>D</title>
<ellipse fill="none" stroke="black" cx="307" cy="-281.25" rx="27" ry="18"/>
<text text-anchor="middle" x="307" y="-275.82" font-family="Times New Roman,serif" font-size="14.00">D</text>
</g>
<!-- D&#45;&#45;C -->
<g id="edge6" class="edge">
<title>D&#45;&#45;C</title>
<path fill="none" stroke="black" d="M315.29,-263.72C322.91,-248.53 334.13,-226.15 341.73,-210.98"/>
<text text-anchor="middle" x="338.75" y="-231.95" font-family="Times New Roman,serif" font-size="14.00">14</text>
</g>
<!-- D&#45;&#45;E -->
<g id="edge7" class="edge">
<title>D&#45;&#45;E</title>
<path fill="none" stroke="black" d="M291.84,-266.03C286.2,-260.07 280.17,-252.77 276,-245.25 253.62,-204.9 242.23,-151 237.59,-123.88"/>
<text text-anchor="middle" x="263.38" y="-188.07" font-family="Times New Roman,serif" font-size="14.00">9</text>
</g>
<!-- D&#45;&#45;B -->
<g id="edge8" class="edge">
<title>D&#45;&#45;B</title>
<path fill="none" stroke="black" d="M326.82,-268.82C345.37,-256.99 372.24,-236.72 386,-211.5 416.68,-155.28 406.2,-133.54 412,-69.75 413.01,-58.66 412.06,-46.19 410.83,-36.39"/>
<text text-anchor="middle" x="411.38" y="-144.2" font-family="Times New Roman,serif" font-size="14.00">1</text>
</g>
<!-- F -->
<g id="node10" class="node">
<title>F</title>
<ellipse fill="none" stroke="black" cx="271" cy="-18" rx="27" ry="18"/>
<text text-anchor="middle" x="271" y="-12.57" font-family="Times New Roman,serif" font-size="14.00">F</text>
</g>
<!-- D&#45;&#45;F -->
<g id="edge9" class="edge">
<title>D&#45;&#45;F</title>
<path fill="none" stroke="black" d="M304.64,-263.11C298.11,-215.77 279.9,-83.62 273.37,-36.2"/>
<text text-anchor="middle" x="292.38" y="-144.2" font-family="Times New Roman,serif" font-size="14.00">3</text>
</g>
<!-- E&#45;&#45;F -->
<g id="edge20" class="edge">
<title>E&#45;&#45;F</title>
<path fill="none" stroke="black" d="M241.94,-88.22C248.28,-73.13 257.59,-50.94 263.96,-35.78"/>
<text text-anchor="middle" x="259.38" y="-56.45" font-family="Times New Roman,serif" font-size="14.00">2</text>
</g>
<!-- L&#45;&#45;J -->
<g id="edge13" class="edge">
<title>L&#45;&#45;J</title>
<path fill="none" stroke="black" d="M167,-262.9C167,-248.02 167,-226.7 167,-211.83"/>
<text text-anchor="middle" x="170.38" y="-231.95" font-family="Times New Roman,serif" font-size="14.00">4</text>
</g>
<!-- A&#45;&#45;B -->
<g id="edge19" class="edge">
<title>A&#45;&#45;B</title>
<path fill="none" stroke="black" d="M355.65,-89.04C362.59,-78.93 371.92,-65.57 380.5,-54 385.38,-47.42 390.93,-40.29 395.77,-34.19"/>
<text text-anchor="middle" x="386.75" y="-56.45" font-family="Times New Roman,serif" font-size="14.00">13</text>
</g>
</g>
</svg>
